C:/Users/WIN 11/Videos/Animations/ffmpeg/bin/ffmpeg.exe -hide_banner -y -y -r 12 -start_number 0 -start_number_range 1 -i C:/Users/WIN 11/Videos/Animations/Rain World/Challenges/The Hunter Games (15-21)/Exports/Videos/frame%04d.png -crf 23 -preset medium -profile:v baseline -pix_fmt yuv420p C:/Users/WIN 11/Videos/Animations/Rain World/Challenges/The Hunter Games (15-21)/Exports/Videos/SHOT 15-2.mp4
=====================================================
Input #0, image2, from 'C:/Users/WIN 11/Videos/Animations/Rain World/Challenges/The Hunter Games (15-21)/Exports/Videos/frame%04d.png':
  Duration: 00:00:02.64, start: 0.000000, bitrate: N/A
  Stream #0:0: Video: png, rgba(pc, gbr/unknown/unknown), 1280x720 [SAR 3937:3937 DAR 16:9], 25 fps, 25 tbr, 25 tbn
Stream mapping:
  Stream #0:0 -> #0:0 (png (native) -> h264 (libx264))
Press [q] to stop, [?] for help
[libx264 @ 0000019978332f80] using SAR=1/1
[libx264 @ 0000019978332f80] using cpu capabilities: MMX2 SSE2Fast SSSE3 SSE4.2 AVX FMA3 BMI2 AVX2
[libx264 @ 0000019978332f80] profile Constrained Baseline, level 3.1, 4:2:0, 8-bit
[libx264 @ 0000019978332f80] 264 - core 164 r3191 4613ac3 - H.264/MPEG-4 AVC codec - Copyleft 2003-2024 - http://www.videolan.org/x264.html - options: cabac=0 ref=3 deblock=1:0:0 analyse=0x1:0x111 me=hex subme=7 psy=1 psy_rd=1.00:0.00 mixed_ref=1 me_range=16 chroma_me=1 trellis=1 8x8dct=0 cqm=0 deadzone=21,11 fast_pskip=1 chroma_qp_offset=-2 threads=6 lookahead_threads=1 sliced_threads=0 nr=0 decimate=1 interlaced=0 bluray_compat=0 constrained_intra=0 bframes=0 weightp=0 keyint=250 keyint_min=12 scenecut=40 intra_refresh=0 rc_lookahead=40 rc=crf mbtree=1 crf=23.0 qcomp=0.60 qpmin=0 qpmax=69 qpstep=4 ip_ratio=1.40 aq=1:1.00
Output #0, mp4, to 'C:/Users/WIN 11/Videos/Animations/Rain World/Challenges/The Hunter Games (15-21)/Exports/Videos/SHOT 15-2.mp4':
  Metadata:
    encoder         : Lavf61.1.100
  Stream #0:0: Video: h264 (avc1 / 0x31637661), yuv420p(progressive), 1280x720 [SAR 1:1 DAR 16:9], q=2-31, 12 fps, 12288 tbn
      Metadata:
        encoder         : Lavc61.3.100 libx264
      Side data:
        cpb: bitrate max/min/avg: 0/0/0 buffer size: 0 vbv_delay: N/A
[out#0/mp4 @ 000001997833b640] video:202KiB audio:0KiB subtitle:0KiB other streams:0KiB global headers:0KiB muxing overhead: 0.539885%
frame=   66 fps=0.0 q=-1.0 Lsize=     203KiB time=00:00:05.50 bitrate= 302.8kbits/s speed=12.3x    
[libx264 @ 0000019978332f80] frame I:1     Avg QP:11.05  size: 20651
[libx264 @ 0000019978332f80] frame P:65    Avg QP:17.98  size:  2858
[libx264 @ 0000019978332f80] mb I  I16..4: 83.4%  0.0% 16.6%
[libx264 @ 0000019978332f80] mb P  I16..4:  4.4%  0.0%  1.7%  P16..4:  2.1%  0.6%  0.2%  0.0%  0.0%    skip:91.0%
[libx264 @ 0000019978332f80] coded y,uvDC,uvAC intra: 14.5% 35.9% 19.4% inter: 0.5% 1.2% 0.5%
[libx264 @ 0000019978332f80] i16 v,h,dc,p: 73% 15%  4%  8%
[libx264 @ 0000019978332f80] i4 v,h,dc,ddl,ddr,vr,hd,vl,hu: 23% 20% 34%  4%  4%  3%  5%  3%  4%
[libx264 @ 0000019978332f80] i8c dc,h,v,p: 62% 18% 10% 10%
[libx264 @ 0000019978332f80] ref P L0: 65.4% 22.6% 12.0%
[libx264 @ 0000019978332f80] kb/s:300.30
